<svg xmlns="http://www.w3.org/2000/svg" viewBox="0 0 128 128">
  <rect width="128" height="128" rx="24" fill="#12201f"/>
  <path d="M28 59c0-18.8 15.2-34 34-34h4c18.8 0 34 15.2 34 34v26c0 10-8.1 18-18 18H46c-10 0-18-8.1-18-18V59Z" fill="#34d399"/>
  <path d="M42 60c0-10.5 8.5-19 19-19h6c10.5 0 19 8.5 19 19v21c0 4.4-3.6 8-8 8H50c-4.4 0-8-3.6-8-8V60Z" fill="#0f172a"/>
  <path d="M54 64h20M64 54v20" stroke="#fef3c7" stroke-width="7" stroke-linecap="round"/>
  <path d="M85 34l13-13M30 27l12 12" stroke="#fbbf24" stroke-width="7" stroke-linecap="round"/>
</svg>
